<?xml version="1.0" encoding="UTF-8"?>
<!DOCTYPE svg PUBLIC "-//W3C//DTD SVG 1.1//EN" "http://www.w3.org/Graphics/SVG/1.1/DTD/svg11.dtd">
<!-- Creator: CorelDRAW X8 -->
<svg xmlns="http://www.w3.org/2000/svg" xml:space="preserve" width="14.5626mm" height="5.0798mm" version="1.1" style="shape-rendering:geometricPrecision; text-rendering:geometricPrecision; image-rendering:optimizeQuality; fill-rule:evenodd; clip-rule:evenodd"
viewBox="0 0 1456 508"
 xmlns:xlink="http://www.w3.org/1999/xlink">
 <defs>
  <style type="text/css">
   <![CDATA[
    .fil2 {fill:#13BFB1}
    .fil0 {fill:#203646;fill-rule:nonzero}
    .fil1 {fill:#344856;fill-rule:nonzero}
   ]]>
  </style>
 </defs>
 <g id="Text">
  <metadata id="CorelCorpID_0Corel-Layer"/>
  <path class="fil0" d="M147 103l0 124 -30 0 0 -77 -27 77 -26 0 -27 -78 0 78 -30 0 0 -124 36 0 34 86 33 -86 37 0zm79 23l0 26 42 0 0 23 -42 0 0 28 47 0 0 24 -77 0 0 -125 77 0 0 24 -47 0zm205 38c0,13 -3,23 -8,33 -5,9 -13,17 -22,22 -10,5 -22,8 -35,8l-47 0 0 -125 47 0c13,0 25,3 35,8 9,5 17,12 22,22 5,9 8,20 8,32zm-68 36c12,0 21,-3 28,-9 6,-7 9,-15 9,-27 0,-11 -3,-20 -9,-26 -7,-6 -16,-9 -28,-9l-14 0 0 71 14 0zm143 -98l0 125 -30 0 0 -125 30 0zm106 -1c16,0 29,4 40,13 10,8 17,19 20,33l-32 0c-2,-5 -6,-10 -11,-13 -5,-3 -10,-5 -17,-5 -9,0 -16,3 -21,10 -6,6 -9,15 -9,26 0,10 3,19 9,25 5,7 12,10 21,10 7,0 12,-2 17,-5 5,-3 9,-8 11,-13l32 0c-3,14 -10,25 -20,33 -11,9 -24,13 -40,13 -12,0 -22,-3 -31,-8 -10,-5 -17,-13 -22,-23 -5,-9 -7,-20 -7,-32 0,-13 2,-24 7,-33 5,-10 12,-18 22,-23 9,-5 19,-8 31,-8zm164 -1c12,0 23,3 33,8 9,6 17,14 22,23 6,10 8,21 8,33 0,12 -2,23 -8,33 -6,10 -13,18 -23,23 -9,5 -20,8 -32,8 -11,0 -22,-3 -31,-8 -10,-5 -18,-13 -23,-23 -6,-10 -8,-21 -8,-33 0,-12 2,-23 8,-33 5,-9 13,-17 23,-23 9,-5 20,-8 31,-8zm0 28c-9,0 -17,4 -23,10 -6,6 -9,15 -9,26 0,11 3,20 9,26 6,7 14,10 23,10 10,0 18,-3 24,-10 6,-6 9,-15 9,-26 0,-11 -3,-19 -9,-26 -6,-6 -14,-10 -24,-10z"/>
  <path class="fil1" d="M35 356c8,0 15,2 20,6 5,4 9,10 10,17l-16 0c-1,-3 -3,-5 -5,-7 -3,-1 -6,-2 -9,-2 -4,0 -8,2 -11,5 -2,3 -4,7 -4,13 0,5 2,9 4,13 3,3 7,4 11,4 3,0 6,0 9,-2 2,-2 4,-4 5,-7l16 0c-1,7 -5,13 -10,17 -5,4 -12,6 -20,6 -6,0 -11,-1 -16,-4 -4,-2 -8,-6 -10,-11 -3,-5 -4,-10 -4,-16 0,-6 1,-12 4,-17 2,-5 6,-8 10,-11 5,-3 10,-4 16,-4zm91 52l-23 0 -4 11 -16 0 23 -62 18 0 22 62 -16 0 -4 -11zm-3 -12l-8 -23 -8 23 16 0zm75 23l-13 -24 -4 0 0 24 -15 0 0 -62 26 0c5,0 9,0 13,2 3,2 6,4 7,7 2,3 3,7 3,10 0,5 -1,9 -4,12 -2,3 -6,5 -11,6l15 25 -17 0zm-17 -34l10 0c3,0 5,-1 6,-2 2,-1 2,-3 2,-6 0,-2 0,-4 -2,-6 -1,-1 -3,-2 -6,-2l-10 0 0 16zm71 -16l0 13 21 0 0 11 -21 0 0 14 23 0 0 12 -39 0 0 -62 39 0 0 12 -23 0zm91 32c0,4 -1,7 -3,9 -1,3 -4,5 -7,7 -3,2 -7,3 -12,3 -7,0 -13,-2 -17,-6 -5,-3 -7,-8 -8,-14l16 0c1,3 1,4 3,6 1,1 3,2 5,2 2,0 4,-1 5,-2 1,-1 2,-2 2,-4 0,-2 -1,-3 -2,-4 -1,-1 -2,-2 -4,-3 -1,0 -3,-1 -6,-2 -4,-1 -7,-3 -10,-4 -2,-1 -4,-3 -6,-6 -2,-2 -3,-5 -3,-9 0,-4 1,-7 3,-10 2,-3 4,-5 8,-6 3,-2 7,-2 11,-2 7,0 13,1 17,5 4,3 6,7 7,13l-17 0c0,-2 -1,-4 -2,-5 -1,-1 -3,-2 -5,-2 -2,0 -3,1 -4,2 -1,1 -2,2 -2,4 0,1 1,3 2,4 1,1 2,2 3,2 2,1 4,2 7,3 4,1 7,2 9,4 3,1 5,3 7,6 2,2 3,5 3,9zm88 -44l0 12 -26 0 0 13 20 0 0 12 -20 0 0 25 -15 0 0 -62 41 0zm51 -1c6,0 11,1 16,4 5,2 9,6 11,11 3,5 5,10 5,17 0,6 -2,11 -5,16 -2,5 -6,9 -11,11 -5,3 -10,5 -16,5 -6,0 -11,-2 -16,-5 -5,-2 -8,-6 -11,-11 -3,-5 -4,-10 -4,-16 0,-7 1,-12 4,-17 3,-5 6,-9 11,-11 5,-3 10,-4 16,-4zm0 14c-5,0 -9,1 -12,4 -3,4 -4,8 -4,14 0,5 1,9 4,13 3,3 7,4 12,4 5,0 9,-1 12,-4 3,-4 4,-8 4,-13 0,-6 -1,-10 -4,-14 -3,-3 -7,-4 -12,-4zm86 49l-13 -24 -4 0 0 24 -15 0 0 -62 26 0c5,0 9,0 12,2 4,2 6,4 8,7 2,3 3,7 3,10 0,5 -2,9 -4,12 -3,3 -6,5 -11,6l15 25 -17 0zm-17 -34l10 0c3,0 5,-1 6,-2 2,-1 2,-3 2,-6 0,-2 0,-4 -2,-6 -1,-1 -3,-2 -6,-2l-10 0 0 16zm134 -28l-22 41 0 21 -15 0 0 -21 -21 -41 17 0 12 25 12 -25 17 0zm50 -1c5,0 11,1 16,4 4,2 8,6 11,11 3,5 4,10 4,17 0,6 -1,11 -4,16 -3,5 -7,9 -12,11 -4,3 -10,5 -15,5 -6,0 -12,-2 -16,-5 -5,-2 -9,-6 -12,-11 -3,-5 -4,-10 -4,-16 0,-7 1,-12 4,-17 3,-5 7,-9 12,-11 4,-3 10,-4 16,-4zm0 14c-5,0 -9,1 -12,4 -3,4 -5,8 -5,14 0,5 2,9 5,13 3,3 7,4 12,4 4,0 8,-1 11,-4 3,-4 5,-8 5,-13 0,-6 -2,-10 -5,-14 -3,-3 -7,-4 -11,-4zm68 -13l0 36c0,4 1,7 3,9 2,2 5,3 8,3 4,0 6,-1 8,-3 2,-2 3,-5 3,-9l0 -36 15 0 0 36c0,5 -1,10 -3,14 -3,4 -6,7 -10,10 -4,2 -8,3 -13,3 -5,0 -10,-1 -14,-3 -3,-2 -6,-5 -9,-10 -2,-4 -3,-9 -3,-14l0 -36 15 0z"/>
 </g>
 <g id="Preset6">
  <metadata id="CorelCorpID_1Corel-Layer"/>
  <g id="Logo">
   <circle class="fil2" cx="25" cy="285" r="21"/>
   <path class="fil2" d="M1302 317l-34 -117 -49 191c-1,3 -3,5 -7,5l0 0c-3,0 -6,-3 -6,-6l-36 -245 -21 138c-1,4 -4,6 -7,6l-1102 0 0 -9 1098 0 25 -169c1,-3 4,-5 7,-5 4,0 6,2 7,6l37 258 46 -187c1,-3 4,-5 7,-5 3,0 6,2 7,5l35 120 27 -73c1,-3 4,-5 6,-5l41 0c4,0 7,1 7,5 0,4 -3,4 -7,4l-37 0 -31 84c-1,2 -4,4 -7,4 -3,0 -6,-2 -6,-5z"/>
   <path class="fil2" d="M1219 21c-128,0 -233,104 -233,233 0,4 1,6 1,6l141 0 24 -168c1,-8 8,-17 20,-16 12,0 18,11 19,18l26 192 31 -126c2,-8 9,-16 19,-16 10,0 17,6 20,18l24 90 13 -33c4,-10 12,-14 19,-14l39 0c8,0 26,7 26,24 0,20 -17,25 -24,25l-28 0 -30 77c-3,9 -13,12 -18,12 -4,0 -13,-1 -18,-11l-21 -73 -38 158c-7,24 -35,16 -37,1l-25 -159 -6 35c-3,9 -10,15 -19,15l-152 0c22,104 116,178 227,178 129,0 233,-104 233,-233 0,-129 -104,-233 -233,-233z"/>
  </g>
 </g>
</svg>
