<svg id="white_logo" data-name="white logo" xmlns="http://www.w3.org/2000/svg" width="142" height="45.7" viewBox="0 0 142 45.7"><defs><style>.cls-1{fill:#fff;}</style></defs><title>logo_white</title><g id="Text"><path class="cls-1" d="M14.52,10.13V22.29H11.58V14.74L8.93,22.29H6.38L3.74,14.64v7.65H.79V10.13H4.32l3.33,8.43,3.24-8.43Zm7.75,2.26v2.55h4.12v2.26H22.27v2.75h4.61v2.35H19.33V10h7.55v2.35Zm20.1,3.73a6.86,6.86,0,0,1-.78,3.24,5.7,5.7,0,0,1-2.16,2.16,7.69,7.69,0,0,1-3.43.78H31.39V10H36a7.69,7.69,0,0,1,3.43.78A5.09,5.09,0,0,1,41.59,13,6.47,6.47,0,0,1,42.37,16.12Zm-6.67,3.53a4,4,0,0,0,2.75-.88,3.76,3.76,0,0,0,.88-2.65,3.5,3.5,0,0,0-.88-2.55,4,4,0,0,0-2.75-.88H34.33v7Zm14-9.61V22.29H46.79V10Zm10.4-.1A5.9,5.9,0,0,1,64,11.21a5.51,5.51,0,0,1,2,3.24H62.87a2.71,2.71,0,0,0-1.08-1.27,3,3,0,0,0-1.67-.49,2.35,2.35,0,0,0-2.06,1,3.5,3.5,0,0,0-.88,2.55,3.42,3.42,0,0,0,.88,2.45,2.35,2.35,0,0,0,2.06,1,3,3,0,0,0,1.67-.49,2.71,2.71,0,0,0,1.08-1.27H66a5.51,5.51,0,0,1-2,3.24,5.9,5.9,0,0,1-3.92,1.27,6.09,6.09,0,0,1-3-.78,4.81,4.81,0,0,1-2.16-2.26,6.44,6.44,0,0,1-.69-3.14A6.58,6.58,0,0,1,54.93,13a4.81,4.81,0,0,1,2.16-2.26A6.09,6.09,0,0,1,60.12,9.94Zm16.08-.1a7.17,7.17,0,0,1,3.24.78,6.76,6.76,0,0,1,2.16,2.26,6.1,6.1,0,0,1,.78,3.24,6.1,6.1,0,0,1-.78,3.24,5.55,5.55,0,0,1-2.26,2.26,6.47,6.47,0,0,1-3.14.78,6.37,6.37,0,0,1-3-.78,5,5,0,0,1-2.26-2.26,6.1,6.1,0,0,1-.78-3.24,6.1,6.1,0,0,1,.78-3.24,6.21,6.21,0,0,1,2.26-2.26A6.37,6.37,0,0,1,76.21,9.84Zm0,2.75a3.19,3.19,0,0,0-2.26,1,3.5,3.5,0,0,0-.88,2.55A3.5,3.5,0,0,0,74,18.66a2.84,2.84,0,0,0,2.26,1,2.91,2.91,0,0,0,2.35-1,3.5,3.5,0,0,0,.88-2.55,3.67,3.67,0,0,0-.88-2.55A3.25,3.25,0,0,0,76.21,12.58Z" transform="translate(-0.5 -2.09)"/><path class="cls-1" d="M3.54,34.94a3.11,3.11,0,0,1,2,.59,2.65,2.65,0,0,1,1,1.67H4.91a1.76,1.76,0,0,0-.49-.69,2.86,2.86,0,0,0-.88-.2,1.57,1.57,0,0,0-1.08.49,2.18,2.18,0,0,0-.39,1.27,2.78,2.78,0,0,0,.39,1.27,1.47,1.47,0,0,0,1.08.39,1.46,1.46,0,0,0,.88-.2,1.76,1.76,0,0,0,.49-.69H6.48a2.65,2.65,0,0,1-1,1.67,3.11,3.11,0,0,1-2,.59A2.88,2.88,0,0,1,2,40.73a2.13,2.13,0,0,1-1-1.08A2.88,2.88,0,0,1,.6,38.08,3.22,3.22,0,0,1,1,36.41a2.61,2.61,0,0,1,1-1.08A2.88,2.88,0,0,1,3.54,34.94ZM12.46,40H10.21l-.39,1.08H8.25L10.5,35h1.77l2.16,6.08H12.86Zm-.29-1.18-.78-2.26-.78,2.26Zm7.35,2.26-1.27-2.35h-.39v2.35H16.39V35h2.55a2.69,2.69,0,0,1,1.27.2,1.55,1.55,0,0,1,.69.69,1.89,1.89,0,0,1,.29,1,1.56,1.56,0,0,1-.39,1.18,1.65,1.65,0,0,1-1.08.59l1.47,2.45Zm-1.67-3.33h1a.83.83,0,0,0,.59-.2c.2-.1.2-.29.2-.59a.72.72,0,0,0-.2-.59.83.83,0,0,0-.59-.2h-1Zm7-1.57v1.27h2.06v1.08H24.82v1.37h2.26v1.18H23.25V35h3.82v1.18Zm8.92,3.14a1.2,1.2,0,0,1-.29.88,1.55,1.55,0,0,1-.69.69,2.09,2.09,0,0,1-1.18.29,2.31,2.31,0,0,1-1.67-.59,1.8,1.8,0,0,1-.78-1.37H30.7a1.12,1.12,0,0,0,.29.59.71.71,0,0,0,1,0,.49.49,0,0,0,0-.78,1.35,1.35,0,0,0-.39-.29,3.86,3.86,0,0,1-.59-.2,10.17,10.17,0,0,1-1-.39,1.67,1.67,0,0,1-.59-.59,1.2,1.2,0,0,1-.29-.88,1.66,1.66,0,0,1,.29-1,1.22,1.22,0,0,1,.78-.59,1.94,1.94,0,0,1,1.08-.2,2.27,2.27,0,0,1,1.67.49,1.82,1.82,0,0,1,.69,1.27H32a.67.67,0,0,0-.69-.69.69.69,0,0,0-.59.59.74.74,0,0,0,.2.39c.1.1.2.2.29.2a4.78,4.78,0,0,0,.69.29,1.85,1.85,0,0,1,.88.39,1.32,1.32,0,0,1,.69.59A1.2,1.2,0,0,1,33.74,39.36ZM42.37,35v1.18H39.82v1.27h2v1.18h-2v2.45H38.35V35Zm5-.1a2.88,2.88,0,0,1,1.57.39A1.94,1.94,0,0,1,50,36.41a3,3,0,0,1,.49,1.67A3,3,0,0,1,50,39.65a1.94,1.94,0,0,1-1.08,1.08,2.76,2.76,0,0,1-3.14,0,2.3,2.3,0,0,1-1.08-1.08,2.88,2.88,0,0,1-.39-1.57,3,3,0,0,1,.39-1.67,2.3,2.3,0,0,1,1.08-1.08A2.88,2.88,0,0,1,47.38,34.94Zm0,1.37a1.56,1.56,0,0,0-1.18.39,2.08,2.08,0,0,0-.39,1.37,2,2,0,0,0,.39,1.27,2,2,0,0,0,2.35,0,2,2,0,0,0,.39-1.27,2.08,2.08,0,0,0-.39-1.37A1.56,1.56,0,0,0,47.38,36.32Zm8.43,4.81-1.27-2.35h-.39v2.35H52.67V35h2.55a2.12,2.12,0,0,1,1.18.2,1.82,1.82,0,0,1,.78.69,1.89,1.89,0,0,1,.29,1,2.1,2.1,0,0,1-.39,1.18,1.94,1.94,0,0,1-1.08.59l1.47,2.45Zm-1.67-3.33h1a.83.83,0,0,0,.59-.2c.2-.1.2-.29.2-.59a.72.72,0,0,0-.2-.59.83.83,0,0,0-.59-.2h-1ZM67.28,35l-2.16,4v2.06H63.65V39.06L61.6,35h1.67l1.18,2.45L65.62,35Zm4.9-.1a3.11,3.11,0,0,1,1.57.39,2.84,2.84,0,0,1,1.08,1.08,3,3,0,0,1,.39,1.67,2.88,2.88,0,0,1-.39,1.57,2.5,2.5,0,0,1-1.18,1.08,2.64,2.64,0,0,1-1.47.49,2.71,2.71,0,0,1-1.57-.49,2.5,2.5,0,0,1-1.18-1.08A2.88,2.88,0,0,1,69,38.08a3,3,0,0,1,.39-1.67,2.5,2.5,0,0,1,1.18-1.08A2.67,2.67,0,0,1,72.19,34.94Zm0,1.37a1.56,1.56,0,0,0-1.18.39,2.13,2.13,0,0,0-.49,1.37A2.07,2.07,0,0,0,71,39.36a1.56,1.56,0,0,0,1.18.39,1.47,1.47,0,0,0,1.08-.39,2.07,2.07,0,0,0,.49-1.27,2.13,2.13,0,0,0-.49-1.37A1.47,1.47,0,0,0,72.19,36.32ZM78.85,35v3.53a1.2,1.2,0,0,0,.29.88,1.11,1.11,0,0,0,.78.29,1,1,0,0,0,.78-.29,1.2,1.2,0,0,0,.29-.88V35h1.47v3.53a3.13,3.13,0,0,1-.29,1.37,4.65,4.65,0,0,1-1,1,2.71,2.71,0,0,1-1.27.29,3.13,3.13,0,0,1-1.37-.29,2.94,2.94,0,0,1-.88-1,3.13,3.13,0,0,1-.29-1.37V35Z" transform="translate(-0.5 -2.09)"/></g><g id="Preset1"><g id="Logo"><circle class="cls-1" cx="2.06" cy="25.89" r="2.06"/><path class="cls-1" d="M127.79,31.12l-3.33-11.47-4.81,18.73a.65.65,0,0,1-.69.49h0a.63.63,0,0,1-.59-.59l-3.53-24-2.06,13.53a.72.72,0,0,1-.69.59H4v-.88H111.71l2.45-16.57a.74.74,0,0,1,.69-.49.65.65,0,0,1,.69.59l3.63,25.3L123.67,18A.73.73,0,0,1,125,18l3.43,11.77,2.65-7.16a.72.72,0,0,1,.59-.49h4c.39,0,.69.1.69.49s-.29.39-.69.39H132.1l-3,8.24a.83.83,0,0,1-.69.39A.55.55,0,0,1,127.79,31.12Z" transform="translate(-0.5 -2.09)"/><path class="cls-1" d="M119.65,2.09A22.87,22.87,0,0,0,96.8,24.94a1.42,1.42,0,0,0,.1.59h13.83l2.35-16.48a1.79,1.79,0,0,1,2-1.57,2,2,0,0,1,1.86,1.77l2.55,18.83,3-12.36a1.93,1.93,0,0,1,3.82.2l2.35,8.83,1.27-3.24a2,2,0,0,1,1.86-1.37h3.82a2.59,2.59,0,0,1,2.55,2.35,2.36,2.36,0,0,1-2.35,2.45h-2.75l-2.94,7.55a1.92,1.92,0,0,1-1.77,1.18,1.89,1.89,0,0,1-1.77-1.08l-2.06-7.16-3.73,15.49a1.86,1.86,0,0,1-3.63.1l-2.45-15.59-.59,3.43a2,2,0,0,1-1.86,1.47H97.39c2.16,10.2,11.38,17.46,22.26,17.46a22.85,22.85,0,0,0,0-45.7Z" transform="translate(-0.5 -2.09)"/></g></g></svg>